<?xml version="1.0" standalone="no"?>
<!DOCTYPE svg PUBLIC "-//W3C//DTD SVG 20010904//EN"
 "http://www.w3.org/TR/2001/REC-SVG-20010904/DTD/svg10.dtd">
<svg version="1.0" xmlns="http://www.w3.org/2000/svg"
 width="100pt" height="100pt" viewBox="0 0 659.000000 1280.000000"
 preserveAspectRatio="xMidYMid meet">
<metadata>
Created by potrace 1.15, written by Peter Selinger 2001-2017
</metadata>
<g transform="translate(0.000000,1280.000000) scale(0.100000,-0.100000)"
fill="#ffe002" stroke="none">
<path d="M3055 12790 c-132 -4 -303 -15 -380 -25 -605 -72 -1148 -272 -1594
-589 -424 -300 -794 -762 -936 -1167 -157 -448 -185 -1024 -85 -1709 116 -789
414 -1715 855 -2655 371 -791 614 -1807 652 -2727 l6 -158 -64 -59 c-36 -32
-78 -83 -94 -112 -27 -48 -30 -63 -29 -134 0 -44 5 -131 11 -192 8 -82 8 -134
0 -190 -16 -116 -14 -236 7 -343 15 -78 17 -120 11 -235 -11 -222 -10 -263 5
-393 11 -102 12 -137 1 -205 -23 -151 -24 -174 -6 -251 23 -97 17 -238 -14
-314 -82 -204 60 -393 391 -523 57 -22 122 -48 145 -57 40 -16 312 -256 543
-478 142 -136 241 -182 520 -238 262 -53 445 -43 774 40 125 32 215 88 282
178 25 33 146 152 267 263 l222 202 115 36 c343 110 539 264 557 439 4 36 -2
80 -17 141 -21 83 -22 102 -14 230 11 199 9 251 -17 319 -19 52 -21 71 -15
152 3 51 14 112 23 136 14 35 16 67 13 168 -9 250 -5 382 14 465 20 88 17 155
-10 207 -25 47 -23 167 6 307 38 190 15 269 -114 387 l-69 63 2 98 c8 452 105
1129 236 1638 115 448 236 785 443 1235 494 1075 774 2009 868 2895 24 225 24
700 1 880 -51 378 -136 641 -287 884 -397 640 -1040 1085 -1858 1285 -402 98
-760 126 -1367 106z m730 -30 c532 -48 970 -168 1381 -379 276 -142 493 -299
704 -511 254 -253 443 -531 538 -790 188 -509 203 -1189 46 -2020 -133 -700
-398 -1478 -812 -2380 -155 -337 -259 -620 -362 -980 -156 -551 -259 -1184
-286 -1772 l-7 -146 -78 39 c-98 49 -173 78 -313 119 -114 33 -351 84 -447 95
-31 4 -61 10 -67 14 -18 11 107 970 208 1586 88 542 164 889 266 1220 161 521
488 1335 861 2145 85 184 157 342 160 351 5 19 -59 63 -162 110 -38 17 -126
58 -193 90 -68 33 -125 59 -127 59 -3 0 -48 21 -102 46 -98 46 -320 149 -423
197 -30 14 -149 69 -265 122 -229 105 -254 116 -303 135 -44 17 -1608 5 -1629
-12 -9 -7 -14 -6 -19 6 -9 24 -24 19 -24 -7 0 -18 -27 -41 -127 -109 -71 -47
-150 -102 -178 -121 -65 -46 -339 -235 -435 -302 -41 -28 -136 -93 -210 -145
-74 -51 -161 -111 -193 -132 -31 -21 -83 -59 -115 -85 -31 -25 -59 -47 -61
-49 -2 -2 29 -69 69 -151 254 -518 568 -1228 755 -1703 262 -665 373 -1076
550 -2025 61 -327 205 -1174 205 -1205 0 -15 -7 -20 -27 -20 -46 0 -320 -48
-433 -76 -160 -40 -329 -98 -431 -148 -51 -26 -93 -45 -94 -44 -2 2 -8 89 -14
193 -60 983 -275 1859 -662 2703 -524 1140 -807 2096 -885 2992 -20 227 -14
661 11 840 51 365 148 637 322 899 302 454 713 802 1225 1037 317 145 642 235
1048 290 203 27 928 43 1135 24z m175 -2725 c0 -18 -22 -244 -50 -501 -27
-258 -99 -939 -160 -1513 -61 -574 -113 -1047 -116 -1052 -7 -12 -661 -12
-669 0 -5 9 -132 656 -501 2540 -51 265 -94 493 -94 506 0 13 8 27 18 31 15 8
675 18 1360 21 l212 1 0 -33z m286 -96 c131 -61 354 -164 494 -229 140 -65
368 -171 505 -235 156 -72 262 -116 283 -117 41 0 46 15 -78 -252 -456 -985
-814 -1893 -970 -2464 -122 -446 -257 -1248 -391 -2330 l-33 -263 -50 7 c-28
4 -108 12 -179 18 l-127 11 0 1040 0 1040 24 5 c20 4 438 381 443 399 1 3 -91
92 -204 196 -203 188 -205 190 -256 195 -51 5 -52 6 -50 35 6 68 314 2983 319
3018 3 20 11 37 18 37 7 0 121 -50 252 -111z m-1597 -1444 c159 -814 291
-1491 293 -1505 3 -21 -2 -26 -29 -30 -25 -4 -81 -50 -238 -195 -113 -104
-204 -193 -203 -197 6 -16 424 -398 435 -398 11 0 13 -209 11 -1042 l-3 -1043
-149 -12 c-83 -7 -152 -10 -154 -8 -3 3 -38 199 -77 437 -176 1052 -312 1703
-445 2127 -171 547 -507 1353 -947 2275 -112 236 -120 261 -74 249 9 -2 267
169 646 431 578 398 631 433 637 413 4 -12 138 -688 297 -1502z"/>
</g>
</svg>
